<svg xmlns="http://www.w3.org/2000/svg" viewBox="0 0 1920 1080"><filter id="b"><feGaussianBlur stdDeviation="12" /></filter><path fill="#040403" d="M0 0h1920v1080H0z"/><g filter="url(#b)" transform="matrix(7.5 0 0 7.5 3.8 3.8)" fill-opacity=".5"><ellipse fill="#b9b9b9" cx="128" cy="41" rx="47" ry="3"/><path fill="#6a6a69" d="M17.1 136l.9-7.9 16.9 1.8-.9 8z"/><path fill="#7b7b7c" d="M10 12h100v3H10z"/><path fill="#b6b6b5" d="M91 41l-10-3 15-1z"/><path fill="#392a1e" d="M8 78h46v7H8z"/><ellipse fill="#060403" cx="14" cy="135" rx="60" ry="3"/><path fill="#383534" d="M143 80l-22-5-13 8z"/><path d="M93 19h56v21H93z"/><path d="M148.3 53.6l-3.6-22.7 3-.5 3.6 22.7z"/><path fill="#bf5125" d="M204 84l3-9 3 7z"/><path d="M168 18h88v59h-88z"/><path fill="#a35c1f" d="M158 75h5v9h-5z"/></g></svg>