<svg xmlns="http://www.w3.org/2000/svg" viewBox="0 0 1920 1080"><filter id="b"><feGaussianBlur stdDeviation="12" /></filter><path fill="#070706" d="M0 0h1920v1080H0z"/><g filter="url(#b)" transform="matrix(7.5 0 0 7.5 3.8 3.8)" fill-opacity=".5"><path fill="#fff" d="M0 141h85v3H0z"/><path fill="#c3c2c2" d="M78 92h97v4H78z"/><ellipse fill="#c0c4c0" cx="190" cy="131" rx="53" ry="2"/><path fill="#fff" d="M0 141h85v3H0z"/><ellipse fill="#b1aea9" cx="134" cy="41" rx="26" ry="3"/><path fill="#757a75" d="M15 12h91v3H15z"/><path fill="#8d918d" d="M34 133l-6-6-16 3z"/><path fill="#fff" d="M0 142h85v2H0z"/><ellipse fill="#898c89" cx="233" cy="129" rx="91" ry="1"/><ellipse fill="#696e6a" cx="165" cy="65" rx="13" ry="2"/><ellipse cx="229" cy="40" rx="72" ry="85"/><path d="M81 138l55 21 18-70z"/></g></svg>