<svg xmlns="http://www.w3.org/2000/svg" viewBox="0 0 1920 1080"><filter id="b"><feGaussianBlur stdDeviation="12" /></filter><path fill="#040302" d="M0 0h1920v1080H0z"/><g filter="url(#b)" transform="matrix(7.5 0 0 7.5 3.8 3.8)" fill-opacity=".5"><ellipse fill="#bfc3bf" cx="130" cy="45" rx="66" ry="2"/><ellipse fill="#474a46" rx="1" ry="1" transform="matrix(-55.65901 -.31556 .01596 -2.8146 58 13.8)"/><path fill="#a3a7a5" d="M118 129h22v4h-22z"/><path fill="#995900" d="M101 83h33v3h-33z"/><path d="M257 147l-70-78 3-85z"/><ellipse fill="#525653" cx="114" cy="43" rx="73" ry="1"/><path d="M9 15h61v127H9z"/><ellipse cx="92" cy="129" rx="31" ry="47"/><path fill="#373831" d="M199 11h50v4h-50z"/><path d="M143.6 60.8l8.2-26.5-4.5 61L271 75.8z"/><ellipse cx="83" cy="46" rx="1" ry="106"/><path fill="#5c5e59" d="M11 12h78v3H11z"/></g></svg>