<svg xmlns="http://www.w3.org/2000/svg" viewBox="0 0 1920 1080"><filter id="b"><feGaussianBlur stdDeviation="12" /></filter><path fill="#060605" d="M0 0h1920v1080H0z"/><g filter="url(#b)" transform="matrix(7.5 0 0 7.5 3.8 3.8)" fill-opacity=".5"><path fill="#b3b3b3" d="M162.5 34.6v6l-69-1.2v-6z"/><ellipse fill="#494b46" cx="52" cy="14" rx="60" ry="3"/><ellipse fill="#8d928d" cx="125" cy="24" rx="21" ry="2"/><path fill="#747672" d="M224 128h23v5h-23z"/><path fill="#747874" d="M17.2 128l21.4 2.4 1.9 1-23.6 2.5z"/><path d="M102 34h77v1h-77z"/><ellipse fill="#101111" cx="128" cy="84" rx="70" ry="23"/><path d="M-9 14h128L12 95z"/><ellipse fill="#010000" cx="224" cy="47" rx="63" ry="83"/><ellipse fill="#424740" cx="224" cy="13" rx="25" ry="2"/><path d="M114 0h36v24h-36zm-6.7 60.5l21.3-23.7L167.2 55l-20 11.7z"/></g></svg>