<svg xmlns="http://www.w3.org/2000/svg" viewBox="0 0 1920 1080"><filter id="b"><feGaussianBlur stdDeviation="12" /></filter><path fill="#060504" d="M0 0h1920v1080H0z"/><g filter="url(#b)" transform="matrix(7.5 0 0 7.5 3.8 3.8)" fill-opacity=".5"><path fill="#b6b7b6" d="M81 39h88v5H81z"/><path fill="#b2b3b3" d="M155 129h80v4h-80z"/><ellipse fill="#757677" cx="58" cy="13" rx="55" ry="2"/><path fill="#7d7e7e" d="M9 129h29v4H9z"/><path d="M140.2 114l-98.5 41.5L-16 10.8 66.4 20z"/><path fill="#2f2116" d="M0 78h91v6H0z"/><ellipse fill="#111213" cx="142" cy="38" rx="55" ry="2"/><path fill="#484039" d="M119.6 83.5l-7.2-2.8-2.5-2 40.8-.5z"/><path d="M223 132l15-49-44 4zM130.2 19l2.6 35.9-3 .2-2.6-36z"/><path fill="#93531b" d="M164 74l-7 5 6 6z"/><path d="M257 82L76-16l184 41z"/></g></svg>