<svg xmlns="http://www.w3.org/2000/svg" viewBox="0 0 1920 1080"><filter id="b"><feGaussianBlur stdDeviation="12" /></filter><path fill="#080808" d="M0 0h1920v1080H0z"/><g filter="url(#b)" transform="matrix(7.5 0 0 7.5 3.8 3.8)" fill-opacity=".5"><ellipse fill="#5d5f5d" cx="127" cy="81" rx="25" ry="57"/><ellipse fill="#b3b7b1" cx="128" cy="67" rx="74" ry="2"/><ellipse cx="39" cy="77" rx="44" ry="255"/><ellipse cx="224" cy="86" rx="32" ry="255"/><ellipse fill="#333" cx="127" cy="39" rx="25" ry="16"/><path fill="#393a39" d="M105 83h46v51h-46z"/><path fill="#808380" d="M122 87h13v12h-13z"/><path d="M0 70h105v74H0z"/><ellipse cx="120" cy="2" rx="255" ry="25"/><ellipse rx="1" ry="1" transform="matrix(-20.2402 12.99398 -24.4671 -38.11143 181.2 109.7)"/><path fill="#343433" d="M106 26h45v26h-45z"/><path fill="#6c6e6a" d="M60 65h70v4H60z"/></g></svg>