<svg xmlns="http://www.w3.org/2000/svg" viewBox="0 0 1920 1080"><filter id="b"><feGaussianBlur stdDeviation="12" /></filter><path fill="#232222" d="M0 0h1920v1080H0z"/><g filter="url(#b)" transform="matrix(7.5 0 0 7.5 3.8 3.8)" fill-opacity=".5"><ellipse fill="#fff" rx="1" ry="1" transform="matrix(-26.054 -.27285 .75026 -71.64205 127.6 84.5)"/><path fill="#fff" d="M111.8 26.7l40 .7-1.6 94-40-.8z"/><ellipse cx="134" cy="13" rx="255" ry="14"/><ellipse cx="36" cy="81" rx="70" ry="70"/><path fill="#fff" d="M105 26h45v109h-45z"/><ellipse rx="1" ry="1" transform="matrix(-29.1691 .27208 -.81795 -87.69192 179.6 84)"/><ellipse cx="244" cy="79" rx="94" ry="94"/><path d="M40 134h157l-93 25z"/><ellipse cx="78" cy="5" rx="255" ry="22"/><ellipse cx="52" cy="76" rx="53" ry="53"/><path d="M160 134.5v17H68v-17z"/><path d="M104 55v104l-120-52z"/></g></svg>